<?xml version="1.0" ?><svg xmlns="http://www.w3.org/2000/svg" viewBox="0 0 32 32"><defs><style>.cls-1{fill:#f95631;}</style></defs><g id="_2" data-name="2"><path class="cls-1" d="M21.5,27a6.5,6.5,0,0,1,0-13,6.22,6.22,0,0,1,1.78.25,1,1,0,0,1,.72,1V25.79a1,1,0,0,1-.72,1A6.22,6.22,0,0,1,21.5,27Zm0-11a4.5,4.5,0,0,0,0,9,4.07,4.07,0,0,0,.5,0V16A4.07,4.07,0,0,0,21.5,16Z"/><path class="cls-1" d="M23.76,8.41a1,1,0,0,1-.46-.12l-1.77-.94a1,1,0,1,1,.94-1.76l1.77.93a1,1,0,0,1-.48,1.89Z"/><path class="cls-1" d="M22,4.94a1,1,0,0,1-.47-1.88l1.77-.94a1,1,0,0,1,1.35.41,1,1,0,0,1-.41,1.35l-1.77.94A1,1,0,0,1,22,4.94Z"/><path d="M25,28H24V12l0,0a.92.92,0,0,0-.18-.62l-.6-.8A9.05,9.05,0,0,0,19,7.52V4a2,2,0,0,0-2-2H15a2,2,0,0,0-2,2V7.52A9.05,9.05,0,0,0,8.8,10.6l-.6.8A.94.94,0,0,0,8,12H8V28H7a1,1,0,0,0,0,2H25a1,1,0,0,0,0-2ZM16,9a7,7,0,0,1,4.88,2H11.12A7,7,0,0,1,16,9ZM15,7V4h2V7ZM10,28V13H22V28Z"/></g></svg>