<svg xmlns="http://www.w3.org/2000/svg" viewBox="0 0 48 47.96"><defs><style>.cls-1{fill:#1e0f00;}</style></defs><title>Asset 251</title><g id="Layer_2" data-name="Layer 2"><g id="_1" data-name="1"><rect class="cls-1" y="45.96" width="48" height="2"/><rect class="cls-1" x="4" y="41.96" width="40" height="2"/><rect class="cls-1" x="8" y="37.96" width="32" height="2"/><path class="cls-1" d="M35,40H13a1,1,0,0,1-1-1V33a1,1,0,0,1,1-1H35a1,1,0,0,1,1,1v6A1,1,0,0,1,35,40ZM14,38H34V34H14Z"/><path class="cls-1" d="M41,34H7a1,1,0,0,1,0-2c2.42,0,5-1.05,5-4a1,1,0,0,1,1-1H35a1,1,0,0,1,1,1c0,2.95,2.58,4,5,4a1,1,0,0,1,0,2ZM12.44,32H35.56a5.45,5.45,0,0,1-1.48-3H13.92A5.45,5.45,0,0,1,12.44,32Z"/><path class="cls-1" d="M41,12H7a1,1,0,0,1-.1-2C18.72,8.78,23.07.58,23.11.5a1,1,0,0,1,1.78,0C25.06.84,29.33,8.79,41.1,10a1,1,0,0,1-.1,2ZM15,10H33a21.74,21.74,0,0,1-9-7.14A21.74,21.74,0,0,1,15,10Z"/><path class="cls-1" d="M35,29H13a1,1,0,0,1-1-1V22a1,1,0,0,1,1-1H35a1,1,0,0,1,1,1v6A1,1,0,0,1,35,29ZM14,27H34V23H14Z"/><path class="cls-1" d="M41,23H7a1,1,0,0,1,0-2c2.42,0,5-1.05,5-4a1,1,0,0,1,1-1H35a1,1,0,0,1,1,1c0,2.95,2.58,4,5,4a1,1,0,0,1,0,2ZM12.44,21H35.56a5.45,5.45,0,0,1-1.48-3H13.92A5.45,5.45,0,0,1,12.44,21Z"/><path class="cls-1" d="M35,18H13a1,1,0,0,1-1-1V11a1,1,0,0,1,1-1H35a1,1,0,0,1,1,1v6A1,1,0,0,1,35,18ZM14,16H34V12H14Z"/><path class="cls-1" d="M29,40H19a1,1,0,0,1-1-1V33a1,1,0,0,1,1-1H29a1,1,0,0,1,1,1v6A1,1,0,0,1,29,40Zm-9-2h8V34H20Z"/><path class="cls-1" d="M29,29H19a1,1,0,0,1-1-1V22a1,1,0,0,1,1-1H29a1,1,0,0,1,1,1v6A1,1,0,0,1,29,29Zm-9-2h8V23H20Z"/><path class="cls-1" d="M29,18H19a1,1,0,0,1-1-1V11a1,1,0,0,1,1-1H29a1,1,0,0,1,1,1v6A1,1,0,0,1,29,18Zm-9-2h8V12H20Z"/></g></g></svg>